<?xml version="1.0" encoding="utf-8"?>
<!-- Generator: Adobe Illustrator 15.1.0, SVG Export Plug-In . SVG Version: 6.00 Build 0)  -->
<!DOCTYPE svg PUBLIC "-//W3C//DTD SVG 1.1//EN" "http://www.w3.org/Graphics/SVG/1.1/DTD/svg11.dtd">
<svg version="1.1" id="github" xmlns="http://www.w3.org/2000/svg" xmlns:xlink="http://www.w3.org/1999/xlink" x="0px" y="0px"
	 width="1417.323px" height="1417.32px" viewBox="708.663 0 1417.323 1417.32" enable-background="new 708.663 0 1417.323 1417.32"
	 xml:space="preserve">
<circle fill="#F5854B" cx="1417.325" cy="708.66" r="680.314"/>
<path fill="#F7F7F7" d="M1417.325,361.417c-191.777,0-347.243,155.466-347.243,347.243s155.466,347.243,347.243,347.243
	c191.777,0,347.242-155.466,347.242-347.243S1609.102,361.417,1417.325,361.417z M1623.538,914.873
	c-26.803,26.802-57.996,47.834-92.713,62.525c-8.824,3.727-17.781,7.008-26.859,9.827v-52.044c0-27.354-9.383-47.473-28.148-60.355
	c11.758-1.134,22.551-2.714,32.389-4.748c9.836-2.033,20.23-4.975,31.193-8.822c10.963-3.849,20.799-8.426,29.502-13.734
	c8.701-5.313,17.07-12.21,25.094-20.686s14.754-18.085,20.176-28.821c5.422-10.735,9.723-23.627,12.883-38.656
	c3.162-15.03,4.748-31.593,4.748-49.678c0-35.044-11.416-64.878-34.248-89.524c10.396-27.128,9.27-56.629-3.389-88.505l-8.482-1.014
	c-5.875-0.681-16.447,1.808-31.705,7.462c-15.258,5.655-32.385,14.917-51.371,27.809c-26.906-7.462-54.82-11.189-83.764-11.189
	c-29.161,0-56.969,3.729-83.423,11.189c-11.977-8.144-23.343-14.86-34.079-20.176c-10.735-5.314-19.325-8.93-25.774-10.856
	c-6.44-1.92-12.43-3.111-17.972-3.564c-5.541-0.452-9.099-0.56-10.68-0.34c-1.58,0.22-2.714,0.453-3.388,0.681
	c-12.664,32.103-13.791,61.61-3.388,88.505c-22.833,24.641-34.249,54.48-34.249,89.524c0,18.085,1.58,34.646,4.748,49.678
	c3.168,15.03,7.463,27.921,12.883,38.656c5.422,10.736,12.154,20.347,20.177,28.821c8.021,8.475,16.392,15.371,25.094,20.686
	c8.702,5.322,18.539,9.895,29.502,13.734c10.963,3.848,21.358,6.781,31.194,8.822c9.837,2.034,20.63,3.622,32.386,4.748
	c-18.538,12.664-27.808,32.782-27.808,60.355v53.059c-10.24-3.048-20.332-6.647-30.246-10.843
	c-34.717-14.69-65.912-35.724-92.715-62.524c-26.801-26.802-47.834-57.997-62.523-92.714
	c-15.188-35.915-22.891-74.099-22.891-113.499c0-39.401,7.703-77.584,22.896-113.499c14.689-34.719,35.725-65.913,62.525-92.714
	c26.801-26.803,57.996-47.835,92.714-62.525c35.915-15.193,74.098-22.896,113.499-22.896c39.4,0,77.583,7.702,113.5,22.896
	c34.723,14.69,65.91,35.724,92.713,62.525c26.803,26.801,47.834,57.995,62.525,92.714c15.186,35.922,22.891,74.104,22.891,113.499
	c0,39.395-7.703,77.584-22.898,113.499C1671.366,856.876,1650.333,888.071,1623.538,914.873L1623.538,914.873z"/>
</svg>
