<?xml version="1.0" encoding="utf-8"?>
<!-- Generator: Adobe Illustrator 15.1.0, SVG Export Plug-In . SVG Version: 6.00 Build 0)  -->
<!DOCTYPE svg PUBLIC "-//W3C//DTD SVG 1.1//EN" "http://www.w3.org/Graphics/SVG/1.1/DTD/svg11.dtd">
<svg version="1.1" id="github" xmlns="http://www.w3.org/2000/svg" xmlns:xlink="http://www.w3.org/1999/xlink" x="0px" y="0px"
	 width="2834.65px" height="1417.32px" viewBox="0 0 2834.65 1417.32" enable-background="new 0 0 2834.65 1417.32"
	 xml:space="preserve">
<circle fill="#F5854B" cx="1417.325" cy="708.66" r="680.314"/>
<path fill="#F7F7F7" d="M1417.325,361.417c-191.777,0-347.243,155.466-347.243,347.243s155.466,347.243,347.243,347.243
	s347.243-155.466,347.243-347.243S1609.103,361.417,1417.325,361.417z M1623.538,914.873
	c-26.802,26.802-57.997,47.834-92.714,62.525c-8.823,3.727-17.78,7.008-26.858,9.828v-52.044c0-27.354-9.383-47.473-28.148-60.356
	c11.757-1.134,22.55-2.714,32.387-4.748c9.836-2.033,20.231-4.975,31.195-8.822c10.963-3.849,20.799-8.426,29.501-13.734
	c8.702-5.314,17.071-12.21,25.094-20.686s14.754-18.085,20.175-28.821c5.422-10.736,9.724-23.627,12.884-38.657
	c3.161-15.03,4.748-31.592,4.748-49.677c0-35.044-11.416-64.878-34.249-89.525c10.396-27.128,9.27-56.629-3.388-88.505l-8.482-1.013
	c-5.875-0.681-16.448,1.807-31.706,7.462c-15.257,5.655-32.385,14.917-51.37,27.808c-26.908-7.462-54.822-11.189-83.764-11.189
	c-29.161,0-56.97,3.728-83.424,11.189c-11.976-8.143-23.343-14.86-34.079-20.176c-10.736-5.314-19.325-8.929-25.774-10.856
	c-6.441-1.92-12.43-3.111-17.972-3.564c-5.541-0.453-9.099-0.56-10.68-0.34c-1.58,0.22-2.714,0.453-3.387,0.68
	c-12.664,32.103-13.791,61.611-3.388,88.505c-22.833,24.641-34.249,54.481-34.249,89.525c0,18.085,1.58,34.646,4.748,49.677
	s7.462,27.921,12.883,38.657c5.422,10.736,12.154,20.346,20.176,28.821s16.392,15.371,25.094,20.686
	c8.702,5.322,18.539,9.894,29.502,13.734c10.963,3.848,21.358,6.781,31.195,8.822c9.836,2.034,20.629,3.622,32.385,4.748
	c-18.538,12.664-27.808,32.783-27.808,60.356v53.058c-10.24-3.047-20.331-6.647-30.245-10.842
	c-34.718-14.691-65.913-35.724-92.715-62.525c-26.801-26.802-47.834-57.997-62.524-92.714
	c-15.187-35.915-22.89-74.098-22.89-113.499s7.703-77.584,22.896-113.499c14.69-34.718,35.724-65.913,62.525-92.714
	c26.801-26.802,57.996-47.835,92.714-62.525c35.915-15.193,74.098-22.896,113.499-22.896s77.584,7.703,113.499,22.896
	c34.724,14.69,65.912,35.724,92.714,62.525c26.802,26.801,47.834,57.996,62.525,92.714c15.186,35.922,22.89,74.104,22.89,113.499
	s-7.703,77.584-22.897,113.499C1671.365,856.876,1650.333,888.071,1623.538,914.873L1623.538,914.873z"/>
</svg>
