<?xml version="1.0" encoding="utf-8"?>
<!-- Generator: Adobe Illustrator 15.1.0, SVG Export Plug-In . SVG Version: 6.00 Build 0)  -->
<!DOCTYPE svg PUBLIC "-//W3C//DTD SVG 1.1//EN" "http://www.w3.org/Graphics/SVG/1.1/DTD/svg11.dtd">
<svg version="1.1" id="linkedin" xmlns="http://www.w3.org/2000/svg" xmlns:xlink="http://www.w3.org/1999/xlink" x="0px" y="0px"
	 width="1417.323px" height="1417.32px" viewBox="708.663 0 1417.323 1417.32" enable-background="new 708.663 0 1417.323 1417.32"
	 xml:space="preserve">
<circle fill="#F5854B" cx="1417.325" cy="708.66" r="680.314"/>
<path fill="#F7F7F7" d="M1647.917,361.417h-461.183c-64.154,0-116.651,52.497-116.651,116.652v461.182
	c0,64.155,52.497,116.652,116.651,116.652h461.183c64.154,0,116.65-52.497,116.65-116.652V478.069
	C1764.567,413.914,1712.071,361.417,1647.917,361.417z M1330.515,925.688h-86.812V621.849h86.812V925.688z M1287.108,578.443
	c-23.975,0-43.405-19.433-43.405-43.405c0-23.974,19.432-43.405,43.405-43.405c23.975,0,43.406,19.433,43.406,43.405
	S1311.083,578.443,1287.108,578.443z M1634.352,925.688h-86.811V752.065c0-23.975-19.432-43.405-43.406-43.405
	c-23.973,0-43.404,19.432-43.404,43.405v173.622h-86.811V621.849h86.811v53.901c17.9-24.591,45.275-53.901,75.961-53.901
	c53.943,0,97.668,48.586,97.668,108.512L1634.352,925.688L1634.352,925.688z"/>
</svg>
