<?xml version="1.0" encoding="utf-8"?>
<!-- Generator: Adobe Illustrator 15.1.0, SVG Export Plug-In . SVG Version: 6.00 Build 0)  -->
<!DOCTYPE svg PUBLIC "-//W3C//DTD SVG 1.1//EN" "http://www.w3.org/Graphics/SVG/1.1/DTD/svg11.dtd">
<svg version="1.1" id="twitter" xmlns="http://www.w3.org/2000/svg" xmlns:xlink="http://www.w3.org/1999/xlink" x="0px" y="0px"
	 width="1417.323px" height="1417.32px" viewBox="708.663 0 1417.323 1417.32" enable-background="new 708.663 0 1417.323 1417.32"
	 xml:space="preserve">
<circle fill="#F5854B" cx="1417.325" cy="708.66" r="680.314"/>
<path fill="#F7F7F7" d="M1764.575,492.009c-25.555,11.396-53.008,19.099-81.828,22.563c29.41-17.738,52.002-45.822,62.652-79.292
	c-27.531,16.427-58.018,28.347-90.482,34.78c-25.986-27.856-63.021-45.263-104.002-45.263c-78.689,0-142.49,64.162-142.49,143.312
	c0,11.231,1.254,22.167,3.686,32.662c-118.418-5.988-223.405-63.035-293.684-149.747c-12.26,21.175-19.29,45.794-19.29,72.057
	c0,49.727,25.157,93.6,63.39,119.296c-23.356-0.737-45.332-7.186-64.529-17.922c-0.016,0.603-0.016,1.205-0.016,1.807
	c0,69.442,49.117,127.36,114.301,140.535c-11.963,3.28-24.541,5.031-37.538,5.031c-9.185,0-18.104-0.9-26.81-2.572
	c18.136,56.935,70.754,98.376,133.103,99.531c-48.765,38.438-110.204,61.349-176.96,61.349c-11.502,0-22.84-0.681-33.987-1.999
	c63.058,40.663,137.955,64.396,218.409,64.396c262.076,0,405.396-218.388,405.396-407.784c0-6.215-0.143-12.388-0.418-18.546
	C1721.311,545.987,1745.469,520.737,1764.575,492.009z"/>
</svg>
